<svg height="460pt" viewBox="-61 0 460 460.00002" width="460pt" xmlns="http://www.w3.org/2000/svg"><path d="m30.257812 460h277.484376c16.511718 0 30.257812-12.628906 30.257812-28.148438v-336.566406c0-15.523437-13.746094-28.285156-30.257812-28.285156h-45.742188v25.699219c.066406 4.460937-3.453125 8.152343-7.910156 8.300781h-170.722656c-4.546876-.109375-8.21875-3.753906-8.367188-8.300781v-25.699219h-44.742188c-16.511718 0-30.257812 12.761719-30.257812 28.285156v336.566406c0 15.519532 13.746094 28.148438 30.257812 28.148438zm61.742188-258c0-4.417969 3.582031-8 8-8h41v-41c0-4.417969 3.582031-8 8-8h40c4.417969 0 8 3.582031 8 8v41h41c4.417969 0 8 3.582031 8 8v40c0 4.417969-3.582031 8-8 8h-41v41c0 4.417969-3.582031 8-8 8h-40c-4.417969 0-8-3.582031-8-8v-41h-41c-4.417969 0-8-3.582031-8-8zm3.257812 138h147.484376c4.421874 0 8 3.582031 8 8s-3.578126 8-8 8h-147.484376c-4.421874 0-8-3.582031-8-8s3.578126-8 8-8zm-30 40h207.484376c4.421874 0 8 3.582031 8 8s-3.578126 8-8 8h-207.484376c-4.421874 0-8-3.582031-8-8s3.578126-8 8-8zm0 0"/><path d="m246 31h-37.4375c-3.765625-.003906-7.023438-2.632812-7.816406-6.316406-3.09375-14.296875-16.671875-24.683594-32.289063-24.683594h-.097656c-15.199219-.015625-28.476563 10.269531-32.257813 24.988281-.910156 3.535157-4.097656 6.007813-7.75 6.011719h-37.351562v54h155zm0 0"/><path d="m157 242v41h24v-41c0-4.417969 3.582031-8 8-8h41v-24h-41c-4.417969 0-8-3.582031-8-8v-41h-24v41c0 4.417969-3.582031 8-8 8h-41v24h41c4.417969 0 8 3.582031 8 8zm0 0"/></svg>