<?xml version="1.0" encoding="iso-8859-1"?>
<!-- Generator: Adobe Illustrator 19.0.0, SVG Export Plug-In . SVG Version: 6.00 Build 0)  -->
<svg version="1.1" id="Layer_1" xmlns="http://www.w3.org/2000/svg" xmlns:xlink="http://www.w3.org/1999/xlink" x="0px" y="0px"
	 viewBox="0 0 490.012 490.012" style="enable-background:new 0 0 490.012 490.012;" xml:space="preserve">
<g>
	<g>
		<path d="M429.039,38.5h-84.3V20.8c0-11.4-9.4-20.8-20.8-20.8h-157c-11.4,0-20.8,9.4-20.8,20.8v17.7h-85.3
			c-5.5-0.4-19.9,4.5-20.8,20.8v409.9c0,11.4,9.4,20.8,20.8,20.8h369.3c13.3,0.5,20.3-14.1,19.8-20.8V59.3
			C450.439,54.5,445.539,39.1,429.039,38.5z M187.739,41.6h116.5V77h-116.5L187.739,41.6L187.739,41.6z M409.339,449.4h-328.8V80.1
			h65.5v16.6c1.3,17.2,15.6,20.8,20.8,20.8h158.1c10.4,0,19.8-9.4,19.8-20.8V80.1h64.5v369.3H409.339z"/>
		<path d="M170.039,328.7h149.8c11.4,0,20.8-9.4,20.8-20.8s-9.4-20.8-20.8-20.8h-149.8c-11.4,0-20.8,9.4-20.8,20.8
			S158.639,328.7,170.039,328.7z"/>
		<path d="M322.939,366.2h-149.8c-11.4,0-20.8,9.4-20.8,20.8s9.4,20.8,20.8,20.8h149.8c10.4,0,19.8-9.4,20.8-20.8
			C343.739,375.6,334.439,366.2,322.939,366.2z"/>
		<path d="M213.739,219.5h11.4V231c0,11.4,9.4,20.8,20.8,20.8s20.8-9.4,20.8-20.8v-11.4h11.4c11.4,0,20.8-9.4,20.8-20.8
			c0-11.4-9.4-20.8-20.8-20.8h-11.4v-11.4c0-11.4-9.4-20.8-20.8-20.8c-11.4,0-20.8,9.4-20.8,20.8V178h-11.4
			c-11.4,0-20.8,9.4-20.8,20.8C192.939,210.1,202.239,219.5,213.739,219.5z"/>
	</g>
</g>
<g>
</g>
<g>
</g>
<g>
</g>
<g>
</g>
<g>
</g>
<g>
</g>
<g>
</g>
<g>
</g>
<g>
</g>
<g>
</g>
<g>
</g>
<g>
</g>
<g>
</g>
<g>
</g>
<g>
</g>
</svg>
